<svg data-v-0dd9719b="" version="1.0" xmlns="http://www.w3.org/2000/svg" xmlns:xlink="http://www.w3.org/1999/xlink" width="100%" height="100%" viewBox="0 0 340.000000 250.000000" preserveAspectRatio="xMidYMid meet" color-interpolation-filters="sRGB" style="margin: auto;"> <rect data-v-0dd9719b="" x="0" y="0" width="100%" height="100%" fill="#fff" fill-opacity="1" class="background"></rect> <rect data-v-0dd9719b="" x="0" y="0" width="100%" height="100%" fill="url(#watermark)" fill-opacity="1" class="watermarklayer"></rect> <g data-v-0dd9719b="" fill="#333" class="icon-text-wrapper icon-svg-group iconsvg" transform="translate(49.08549499511719,92.21383285522461)"><g class="iconsvg-imagesvg" transform="translate(0,0)"><g><rect fill="#333" fill-opacity="0" stroke-width="2" x="0" y="0" width="60" height="65.57233721667286" class="image-rect"></rect> <svg x="0" y="0" width="60" height="65.57233721667286" filtersec="colorsb5497343891" class="image-svg-svg primary" style="overflow: visible;"><svg xmlns="http://www.w3.org/2000/svg" viewBox="-0.000005335050900612259 0 46.28000259399414 50.57786560058594"><path d="M21.22 0v21.66a4.19 4.19 0 0 1-2.11 3.64L.36 36.12A8.52 8.52 0 0 1 0 33.66V16.72a8.48 8.48 0 0 1 1.13-4.23 8.59 8.59 0 0 1 3.11-3.11L18.9.91A8.75 8.75 0 0 1 21.22 0z" fill="#2a3294"></path><path d="M44 39.45A8.7 8.7 0 0 1 42 41l-14.62 8.46a8.6 8.6 0 0 1-8.48 0L4.24 41a8.42 8.42 0 0 1-1.95-1.56L21 28.63a4.17 4.17 0 0 1 4.21 0z" fill="#ff006f"></path><path d="M46.28 16.72v16.94a8.52 8.52 0 0 1-.37 2.46L27.16 25.3a4.23 4.23 0 0 1-2.1-3.65V0a8.89 8.89 0 0 1 2.32.91L42 9.38a8.52 8.52 0 0 1 4.24 7.34z" fill="#0087ff"></path></svg></svg> <!----></g></g> <g transform="translate(67.00000381469727,4.204917907714844)"><g data-gra="path-name" fill-rule="" class="tp-name iconsvg-namesvg" transform="translate(0,0)"><g transform="scale(1)"><g><path d="M4.46-37.26L4.46-37.26 4.81-37.62Q10.66-36.95 12.15-34.11L12.15-34.11Q13-32.4 11.88-31.18L11.88-31.18Q10.71-29.97 8.91-30.96L8.91-30.96Q8.78-31 8.69-31.09L8.69-31.09Q7.83-34.34 4.46-37.26ZM1.4-26.86L1.4-26.86 1.75-27.22Q7.33-26.73 8.64-24.03L8.64-24.03Q9.4-22.45 8.32-21.33L8.32-21.33Q7.15-20.11 5.44-21.11L5.44-21.11Q4.91-22.63 3.78-24.21 2.65-25.79 1.4-26.86ZM13.54-30.38L13.54-30.38 14.31-30.15Q9.99-15.62 9.09-11.79L9.09-11.79Q8.46-8.82 8.5-7.6L8.5-7.6Q8.5-6.79 9.27-4.32 10.04-1.84 9.95 0.32L9.95 0.32Q9.9 1.89 9.04 2.83L9.04 2.83Q8.23 3.78 6.84 3.78L6.84 3.78Q5.17 3.78 4.86 1.53L4.86 1.53Q5.44-1.93 5.26-4.59L5.26-4.59Q5.13-7.25 4.37-7.74L4.37-7.74Q3.55-8.32 2.11-8.46L2.11-8.46 2.11-9.36 4.09-9.36Q4.54-9.36 4.77-9.49L4.77-9.49Q5-9.67 5.31-10.3L5.31-10.3Q6.17-11.97 13.54-30.38ZM24.21-23.09L24.21-23.09 24.66-23.4Q29.56-22.14 30.55-19.53L30.55-19.53Q31.14-18 30.02-17.19L30.02-17.19Q29.02-16.47 27.72-17.37L27.72-17.37Q27.09-20.02 24.21-23.09ZM23.54-13.18L23.54-13.18 23.94-13.5Q28.84-12.11 29.88-9.45L29.88-9.45Q30.46-7.79 29.34-6.88L29.34-6.88Q28.26-6.08 26.91-7.11L26.91-7.11Q26.37-10.04 23.54-13.18ZM18.95-5.26L18.95-5.26 33.48-5.26Q34.06-8.87 34.34-14.4L34.34-14.4 20.47-14.4Q19.66-8.91 18.95-5.26ZM34.74-24.84L34.74-24.84 21.91-24.84Q21.46-21.15 20.65-15.71L20.65-15.71 34.42-15.71Q34.6-18.95 34.74-24.84ZM43.06-14.4L43.06-14.4 38.3-14.4Q38.02-9.04 37.53-5.26L37.53-5.26 39.73-8.19Q41.94-6.12 43.2-4.68L43.2-4.68Q43.02-3.96 42.03-3.96L42.03-3.96 37.35-3.96Q36.59 0.45 35.19 1.89L35.19 1.89Q33.44 3.73 29.88 3.82L29.88 3.82Q29.88 1.93 29.2 1.26L29.2 1.26Q28.35 0.4 25.74-0.14L25.74-0.14 25.74-0.85Q29.29-0.54 30.51-0.54L30.51-0.54Q31.5-0.54 32.09-1.13L32.09-1.13Q32.71-1.67 33.25-3.96L33.25-3.96 19.17-3.96Q18.95-2.07 16.06-2.07L16.06-2.07Q13.18-2.79 13.41-4.68L13.41-4.68Q14.17-5.26 15.03-5.67L15.03-5.67Q15.57-8.1 16.52-14.4L16.52-14.4 11.65-14.4 11.29-15.71 16.7-15.71Q17.32-19.75 17.95-25.83L17.95-25.83Q15.52-22.81 12.87-20.88L12.87-20.88 12.33-21.29Q14.67-24.21 16.61-28.84L16.61-28.84Q18.59-33.52 19.48-37.98L19.48-37.98 23.85-36.18Q23.36-34.47 22.05-31.99L22.05-31.99 36.49-31.99Q36.49-35.23 39.91-35.23L39.91-35.23Q43.34-34.65 43.34-31.41L43.34-31.41Q43.2-30.69 42.12-30.69L42.12-30.69 21.33-30.69Q20.2-28.89 19.48-27.9L19.48-27.9 23.04-26.14 34.29-26.14Q34.6-28.48 37.8-28.48L37.8-28.48Q40.91-27.36 40.59-25.02L40.59-25.02Q40.05-24.39 38.66-24.21L38.66-24.21Q38.52-19.75 38.38-15.71L38.38-15.71 38.7-15.71Q38.52-18.86 41.22-18.86L41.22-18.86Q44.05-18.27 44.23-15.12L44.23-15.12Q44.1-14.4 43.06-14.4ZM77.89-6.75L77.89-6.75 69.48-6.75 69.48 1.67Q69.48 1.8 69.08 1.98L69.08 1.98Q68.72 2.21 67.86 2.38L67.86 2.38Q67.05 2.61 66.06 2.61L66.06 2.61 65.34 2.61 65.34-6.75 56.84-6.75 56.48-8.05 65.34-8.05 65.34-13.54 57.91-13.54 57.55-14.85 68.76-14.85Q69.97-18.04 71.14-22.54L71.14-22.54 74.7-21.02Q72.22-17.05 69.97-14.85L69.97-14.85 72.72-14.85Q72.9-17.28 75.78-17.28L75.78-17.28Q78.7-16.7 78.53-14.26L78.53-14.26Q78.39-13.54 77.4-13.54L77.4-13.54 69.48-13.54 69.48-8.05 72.72-8.05Q72.9-10.8 76.09-10.8L76.09-10.8Q79.29-10.21 79.11-7.47L79.11-7.47Q78.93-6.75 77.89-6.75ZM59.31-22.05L59.31-22.05 59.76-22.32Q64.48-20.97 65.3-18.27L65.3-18.27Q65.84-16.56 64.62-15.62L64.62-15.62Q63.27-14.58 61.74-15.88L61.74-15.88Q61.61-18.95 59.31-22.05ZM69.66-31.63L80.28-31.63Q80.41-35.05 84.33-35.05L84.33-35.05Q88.25-34.47 88.11-31.05L88.11-31.05Q87.93-30.33 86.89-30.33L86.89-30.33 69.66-30.33 69.66-24.43 79.97-24.43Q80.19-26.82 83.56-26.82L83.56-26.82Q86.89-25.65 86.67-23.27L86.67-23.27Q86.04-22.59 84.78-22.36L84.78-22.36 84.78-1.48Q84.78 1.03 83.56 2.25L83.56 2.25Q82.39 3.51 78.62 3.87L78.62 3.87Q78.39 1.62 77.58 0.9L77.58 0.9Q76.28-0.22 73.44-0.63L73.44-0.63 73.44-1.3Q78.21-0.94 79.38-0.94L79.38-0.94Q80.41-0.94 80.41-1.93L80.41-1.93 80.41-23.13 55.17-23.13 55.17 2.25Q55.17 2.65 53.95 3.24L53.95 3.24Q52.78 3.82 51.52 3.82L51.52 3.82 50.85 3.82 50.85-24.43 65.34-24.43 65.34-30.33 47.48-30.33 47.12-31.63 65.34-31.63 65.34-38.16 69.66-37.62 69.66-31.63ZM103-28.08L103-32.13 91.8-32.13 91.48-33.39 103-33.39 103-38.34 106.92-37.84 106.92-33.39 117.81-33.39 117.81-38.34 121.81-37.84 121.81-33.39 126.85-33.39Q126.94-36.45 130.28-36.45L130.28-36.45Q133.65-35.91 133.56-32.85L133.56-32.85Q133.43-32.13 132.34-32.13L132.34-32.13 121.81-32.13 121.81-29.16Q121.81-28.98 121.41-28.75L121.41-28.75Q121.05-28.57 120.33-28.39L120.33-28.39Q119.66-28.26 118.84-28.21L118.84-28.21 120.87-27.63Q120.56-26.68 119.2-26.73L119.2-26.73Q118.66-25.38 117.9-23.67L117.9-23.67 125.46-23.67Q125.41-27.04 128.75-27.04L128.75-27.04Q132.07-26.46 132.12-23.09L132.12-23.09Q131.94-22.36 130.95-22.36L130.95-22.36 117.27-22.36Q114.25-16.61 110.47-13.37L110.47-13.37 109.84-13.72Q113.53-20.38 115.06-29.38L115.06-29.38 117.81-28.53 117.81-32.13 106.92-32.13 106.92-28.98Q106.92-28.66 105.89-28.35 104.85-28.04 103.59-28.04L103.59-28.04 103-28.08ZM118.39-20.97L118.39-20.97 118.84-21.2Q124.16-19.98 125.37-17.01L125.37-17.01Q126.13-15.12 124.92-13.99L124.92-13.99Q123.75-12.82 122.09-13.95L122.09-13.95Q121.77-15.71 120.73-17.64 119.7-19.57 118.39-20.97ZM104.81-11.88L104.81-27.95 108.67-27.4 108.67-13.09Q108.67-12.78 107.59-12.33 106.52-11.88 105.48-11.88L105.48-11.88 104.81-11.88ZM97.29-13.68L97.29-13.68 96.66-13.72 96.66-26.55 100.39-26.05 100.39-14.8Q100.39-14.49 99.36-14.08 98.33-13.68 97.29-13.68ZM105.57-9.54L100.35-9.54 100.35 0.54 105.57 0.54 105.57-9.54ZM114.84 0.54L114.84-9.54 109.48-9.54 109.48 0.54 114.84 0.54ZM124.02 0.54L124.02-9.54 118.75-9.54 118.75 0.54 124.02 0.54ZM128.2 0.54L128.52 0.54Q128.38-2.34 131.04-2.34L131.04-2.34Q133.69-1.75 133.83 1.13L133.83 1.13Q133.69 1.84 132.66 1.84L132.66 1.84 92.11 1.84 91.71 0.54 96.25 0.54 96.25-10.84 123.66-10.84Q123.97-12.87 126.94-12.87L126.94-12.87Q129.91-11.88 129.6-9.86L129.6-9.86Q129.19-9.36 128.2-9.18L128.2-9.18 128.2 0.54ZM159.66-22.72L159.66-13.23 169.83-13.23 169.83-22.72 159.66-22.72ZM145.89-13.23L145.89-13.23 155.47-13.23 155.47-22.72 146.25-22.72 146.25-20.75Q146.25-16.16 145.89-13.23ZM155.47-24.03L155.47-33.3 146.25-33.3 146.25-24.03 155.47-24.03ZM169.83-24.03L169.83-33.3 159.66-33.3 159.66-24.03 169.83-24.03ZM172.98-37.08L172.98-37.08Q176.4-35.91 176.22-33.44L176.22-33.44Q175.5-32.63 174.1-32.4L174.1-32.4 174.1-1.84Q174.1 0.72 172.98 1.93 171.85 3.15 168.16 3.46L168.16 3.46Q167.94 1.3 167.18 0.49L167.18 0.49Q166-0.58 163.31-0.99L163.31-0.99 163.31-1.67Q167.85-1.3 168.8-1.3L168.8-1.3Q169.83-1.3 169.83-2.29L169.83-2.29 169.83-11.92 159.66-11.92 159.66 2.11Q159.66 2.29 159.25 2.56L159.25 2.56Q158.9 2.83 158.04 3.06L158.04 3.06Q157.19 3.33 156.19 3.33L156.19 3.33 155.47 3.33 155.47-11.92 145.71-11.92Q144.18-1.8 137.07 3.6L137.07 3.6 136.49 3.19Q139.86-1.35 140.94-7.11 142.02-12.87 142.02-20.7L142.02-20.7 142.02-34.6 169.34-34.6Q169.51-37.08 172.98-37.08Z" transform="translate(-1.399999976158142, 38.34000015258789)"></path></g> <!----> <!----> <!----> <!----> <!----> <!----> <!----></g></g> <g data-gra="path-slogan" fill-rule="" class="tp-slogan iconsvg-slogansvg" fill="#333" transform="translate(34.81950378417969,48.209999084472656)"><!----> <!----> <g transform="scale(1, 1)"><g transform="scale(1)"><path d="M2.06-5.06L6.56-5.06L6.56-8.58L7.73-8.58L7.73 0L6.56 0L6.56-3.98L2.06-3.98L2.06 0L0.89 0L0.89-8.58L2.06-8.58L2.06-5.06ZM15.19 0L14.34-2.48L10.88-2.48L9.98 0L8.81 0L12.05-8.58L13.36-8.58L16.45 0L15.19 0ZM12.61-7.31L11.25-3.52L13.92-3.52L12.66-7.31L12.61-7.31ZM17.67-8.58L18.84-8.58L18.84 0L17.67 0L17.67-8.58ZM22.22-8.58L26.53-1.64L26.53-8.58L27.66-8.58L27.66 0L26.34 0L21.98-6.94L21.94-6.94L21.94 0L20.81 0L20.81-8.58L22.22-8.58ZM35.11 0L34.27-2.48L30.80-2.48L29.91 0L28.73 0L31.97-8.58L33.28-8.58L36.38 0L35.11 0ZM32.53-7.31L31.17-3.52L33.84-3.52L32.58-7.31L32.53-7.31ZM38.81-8.58L43.13-1.64L43.13-8.58L44.25-8.58L44.25 0L42.94 0L38.58-6.94L38.53-6.94L38.53 0L37.41 0L37.41-8.58L38.81-8.58ZM49.36-8.58L50.53-8.58L50.53-1.03L54.89-1.03L54.89 0L49.36 0L49.36-8.58ZM61.69 0L60.84-2.48L57.38-2.48L56.48 0L55.31 0L58.55-8.58L59.86-8.58L62.95 0L61.69 0ZM59.11-7.31L57.75-3.52L60.42-3.52L59.16-7.31L59.11-7.31ZM65.39-8.58L69.70-1.64L69.70-8.58L70.83-8.58L70.83 0L69.52 0L65.16-6.94L65.11-6.94L65.11 0L63.98 0L63.98-8.58L65.39-8.58ZM79.55-8.58L76.31-3.47L76.31 0L75.14 0L75.14-3.47L71.91-8.58L73.27-8.58L75.70-4.45L78.19-8.58L79.55-8.58ZM87.38-4.27L87.38-4.27Q87.19-7.64 84.38-7.83L84.38-7.83Q81.52-7.69 81.38-4.27L81.38-4.27Q81.52-0.94 84.38-0.80L84.38-0.80Q87.19-0.98 87.38-4.27ZM88.55-4.27L88.55-4.27Q88.27 0 84.38 0.14L84.38 0.14Q80.44 0 80.16-4.27L80.16-4.27Q80.39-8.72 84.38-8.81L84.38-8.81Q88.27-8.67 88.55-4.27ZM91.31-8.58L95.63-1.64L95.63-8.58L96.75-8.58L96.75 0L95.44 0L91.08-6.94L91.03-6.94L91.03 0L89.91 0L89.91-8.58L91.31-8.58ZM104.95-3.61L102.33-3.61L102.33-4.59L106.08-4.59L106.08 0L105.33 0L105.05-1.08Q104.06 0.09 102.23 0.14L102.23 0.14Q100.50 0.14 99.56-0.75L99.56-0.75Q98.16-2.06 98.20-4.36L98.20-4.36Q98.53-8.63 102.28-8.81L102.28-8.81Q105.47-8.63 105.94-6L105.94-6L104.81-6Q104.34-7.78 102.23-7.83L102.23-7.83Q99.56-7.64 99.42-4.31L99.42-4.31Q99.42-0.75 102.28-0.75L102.28-0.75Q103.31-0.75 104.06-1.31L104.06-1.31Q105-2.06 104.95-3.61L104.95-3.61Z" transform="translate(-0.890625, 8.8125)"></path></g></g></g></g></g><defs v-gra="od"></defs></svg>